<svg width="57" height="10" viewBox="0 0 57 10" fill="none" xmlns="http://www.w3.org/2000/svg">
<path d="M9.57074 5.5963C9.57074 6.79045 9.21735 7.74092 8.50912 8.45057C7.70542 9.29417 6.65662 9.71597 5.36842 9.71597C4.13437 9.71597 3.08415 9.28847 2.22202 8.43347C1.35847 7.57705 0.926697 6.51685 0.926697 5.25145C0.926697 3.98462 1.35847 2.92442 2.22202 2.06942C3.08415 1.213 4.13437 0.785499 5.36842 0.785499C5.98117 0.785499 6.56685 0.905198 7.1226 1.14317C7.67977 1.38257 8.1258 1.70035 8.45925 2.09792L7.70827 2.85032C7.14255 2.17345 6.36307 1.83572 5.36699 1.83572C4.46639 1.83572 3.68834 2.15207 3.03142 2.78477C2.37449 3.41747 2.04675 4.2397 2.04675 5.25002C2.04675 6.26035 2.37449 7.08257 3.03142 7.71527C3.68834 8.34797 4.46639 8.66432 5.36699 8.66432C6.32174 8.66432 7.11832 8.34655 7.7553 7.70957C8.16855 7.2949 8.40794 6.71777 8.47207 5.9782H5.36699V4.95077H9.50947C9.55222 5.1745 9.57074 5.38967 9.57074 5.5963Z" fill="white"/>
<path d="M16.1401 2.02533H12.247V4.73568H15.7582V5.7631H12.247V8.47345H16.1401V9.5251H11.1484V0.975104H16.1401V2.02533Z" fill="white"/>
<path d="M20.7726 9.5251H19.674V2.02533H17.2857V0.975104H23.1609V2.02533H20.7726V9.5251Z" fill="white"/>
<path d="M27.4117 9.5251V0.975104H28.5103V9.5251H27.4117Z" fill="white"/>
<path d="M33.3826 9.5251H32.284V2.02533H29.8957V0.975104H35.7709V2.02533H33.3826V9.5251Z" fill="white"/>
<path d="M46.8928 8.42072C46.052 9.28427 45.0075 9.71604 43.7577 9.71604C42.508 9.71604 41.4635 9.28427 40.6242 8.42072C39.7834 7.55717 39.3645 6.49981 39.3645 5.25009C39.3645 4.00037 39.7834 2.94301 40.6242 2.07946C41.4635 1.21591 42.508 0.782715 43.7577 0.782715C45.0003 0.782715 46.0435 1.21734 46.8871 2.08516C47.7307 2.95299 48.1524 4.00749 48.1524 5.25009C48.1524 6.49981 47.7321 7.55717 46.8928 8.42072ZM41.435 7.70394C42.0677 8.34519 42.8415 8.66439 43.7577 8.66439C44.674 8.66439 45.4492 8.34377 46.0805 7.70394C46.7132 7.06269 47.031 6.24474 47.031 5.25009C47.031 4.25544 46.7132 3.43749 46.0805 2.79624C45.4492 2.15499 44.674 1.83579 43.7577 1.83579C42.8415 1.83579 42.0677 2.15641 41.435 2.79624C40.8037 3.43749 40.4859 4.25544 40.4859 5.25009C40.4859 6.24474 40.8037 7.06269 41.435 7.70394Z" fill="white"/>
<path d="M49.6943 9.5251V0.975104H51.031L55.1863 7.62558H55.2333L55.1863 5.97828V0.975104H56.285V9.5251H55.1378L50.7902 2.55116H50.7431L50.7902 4.19845V9.5251H49.6943Z" fill="white"/>
<path d="M9.57074 5.5963C9.57074 6.79045 9.21735 7.74092 8.50912 8.45057C7.70542 9.29417 6.65662 9.71597 5.36842 9.71597C4.13437 9.71597 3.08415 9.28847 2.22202 8.43347C1.35847 7.57705 0.926697 6.51685 0.926697 5.25145C0.926697 3.98462 1.35847 2.92442 2.22202 2.06942C3.08415 1.213 4.13437 0.785499 5.36842 0.785499C5.98117 0.785499 6.56685 0.905198 7.1226 1.14317C7.67977 1.38257 8.1258 1.70035 8.45925 2.09792L7.70827 2.85032C7.14255 2.17345 6.36307 1.83572 5.36699 1.83572C4.46639 1.83572 3.68834 2.15207 3.03142 2.78477C2.37449 3.41747 2.04675 4.2397 2.04675 5.25002C2.04675 6.26035 2.37449 7.08257 3.03142 7.71527C3.68834 8.34797 4.46639 8.66432 5.36699 8.66432C6.32174 8.66432 7.11832 8.34655 7.7553 7.70957C8.16855 7.2949 8.40794 6.71777 8.47207 5.9782H5.36699V4.95077H9.50947C9.55222 5.1745 9.57074 5.38967 9.57074 5.5963Z" stroke="white" stroke-width="0.2" stroke-miterlimit="10"/>
<path d="M16.1401 2.02533H12.247V4.73568H15.7582V5.7631H12.247V8.47345H16.1401V9.5251H11.1484V0.975104H16.1401V2.02533Z" stroke="white" stroke-width="0.2" stroke-miterlimit="10"/>
<path d="M20.7726 9.5251H19.674V2.02533H17.2857V0.975104H23.1609V2.02533H20.7726V9.5251Z" stroke="white" stroke-width="0.2" stroke-miterlimit="10"/>
<path d="M27.4117 9.5251V0.975104H28.5103V9.5251H27.4117Z" stroke="white" stroke-width="0.2" stroke-miterlimit="10"/>
<path d="M33.3826 9.5251H32.284V2.02533H29.8957V0.975104H35.7709V2.02533H33.3826V9.5251Z" stroke="white" stroke-width="0.2" stroke-miterlimit="10"/>
<path d="M46.8928 8.42072C46.052 9.28427 45.0075 9.71604 43.7577 9.71604C42.508 9.71604 41.4635 9.28427 40.6242 8.42072C39.7834 7.55717 39.3645 6.49981 39.3645 5.25009C39.3645 4.00037 39.7834 2.94301 40.6242 2.07946C41.4635 1.21591 42.508 0.782715 43.7577 0.782715C45.0003 0.782715 46.0435 1.21734 46.8871 2.08516C47.7307 2.95299 48.1524 4.00749 48.1524 5.25009C48.1524 6.49981 47.7321 7.55717 46.8928 8.42072ZM41.435 7.70394C42.0677 8.34519 42.8415 8.66439 43.7577 8.66439C44.674 8.66439 45.4492 8.34377 46.0805 7.70394C46.7132 7.06269 47.031 6.24474 47.031 5.25009C47.031 4.25544 46.7132 3.43749 46.0805 2.79624C45.4492 2.15499 44.674 1.83579 43.7577 1.83579C42.8415 1.83579 42.0677 2.15641 41.435 2.79624C40.8037 3.43749 40.4859 4.25544 40.4859 5.25009C40.4859 6.24474 40.8037 7.06269 41.435 7.70394Z" stroke="white" stroke-width="0.2" stroke-miterlimit="10"/>
<path d="M49.6943 9.5251V0.975104H51.031L55.1863 7.62558H55.2333L55.1863 5.97828V0.975104H56.285V9.5251H55.1378L50.7902 2.55116H50.7431L50.7902 4.19845V9.5251H49.6943Z" stroke="white" stroke-width="0.2" stroke-miterlimit="10"/>
</svg>
