<svg width="100" height="11" viewBox="0 0 100 11" fill="none" xmlns="http://www.w3.org/2000/svg">
<path d="M0.828247 1.41308V9.94742H3.9096C6.45275 9.94742 7.92542 8.38013 7.92542 5.65364C7.92542 2.96854 6.44092 1.41308 3.9096 1.41308H0.828247ZM2.15305 2.6196H3.76174C5.53012 2.6196 6.57695 3.74332 6.57695 5.67138C6.57695 7.62902 5.54786 8.74091 3.76174 8.74091H2.15305V2.6196Z" fill="white"/>
<path d="M12.4357 10.0716C14.3164 10.0716 15.4697 8.81188 15.4697 6.72413C15.4697 4.64821 14.3105 3.38254 12.4357 3.38254C10.5549 3.38254 9.39571 4.64821 9.39571 6.72413C9.39571 8.81188 10.549 10.0716 12.4357 10.0716ZM12.4357 8.94199C11.3297 8.94199 10.7087 8.13173 10.7087 6.72413C10.7087 5.32835 11.3297 4.51218 12.4357 4.51218C13.5357 4.51218 14.1626 5.32835 14.1626 6.72413C14.1626 8.12582 13.5357 8.94199 12.4357 8.94199Z" fill="white"/>
<path d="M25.291 3.50674H24.0194L22.8721 8.42153H22.7715L21.4467 3.50674H20.2284L18.9036 8.42153H18.8089L17.6556 3.50674H16.3663L18.1406 9.94742H19.4477L20.7725 5.20415H20.873L22.2037 9.94742H23.5226L25.291 3.50674Z" fill="white"/>
<path d="M26.7554 9.94742H28.027V6.18001C28.027 5.17458 28.6243 4.54766 29.5647 4.54766C30.5051 4.54766 30.9545 5.06221 30.9545 6.09721V9.94742H32.2261V5.77784C32.2261 4.24603 31.4336 3.38254 29.9964 3.38254C29.0265 3.38254 28.3877 3.81429 28.0743 4.52992H27.9796V3.50674H26.7554V9.94742Z" fill="white"/>
<path d="M34.2287 9.94742H35.5003V0.993164H34.2287V9.94742Z" fill="white"/>
<path d="M40.2826 10.0716C42.1633 10.0716 43.3166 8.81188 43.3166 6.72413C43.3166 4.64821 42.1574 3.38254 40.2826 3.38254C38.4018 3.38254 37.2426 4.64821 37.2426 6.72413C37.2426 8.81188 38.3959 10.0716 40.2826 10.0716ZM40.2826 8.94199C39.1766 8.94199 38.5556 8.13173 38.5556 6.72413C38.5556 5.32835 39.1766 4.51218 40.2826 4.51218C41.3826 4.51218 42.0096 5.32835 42.0096 6.72413C42.0096 8.12582 41.3826 8.94199 40.2826 8.94199Z" fill="white"/>
<path d="M47.1053 8.98339C46.4134 8.98339 45.9106 8.64628 45.9106 8.06667C45.9106 7.4989 46.3128 7.19727 47.2 7.13813L48.7732 7.03759V7.57579C48.7732 8.37422 48.0634 8.98339 47.1053 8.98339ZM46.78 10.0539C47.6258 10.0539 48.3296 9.68719 48.714 9.04254H48.8146V9.94742H50.0388V5.54718C50.0388 4.18689 49.128 3.38254 47.5134 3.38254C46.0526 3.38254 45.0117 4.09226 44.8816 5.19824H46.1117C46.2537 4.74283 46.7446 4.4826 47.4543 4.4826C48.3237 4.4826 48.7732 4.86703 48.7732 5.54718V6.10312L47.0284 6.20367C45.4966 6.2983 44.6332 6.96661 44.6332 8.12582C44.6332 9.30276 45.538 10.0539 46.78 10.0539Z" fill="white"/>
<path d="M54.3539 10.0539C55.2411 10.0539 55.9922 9.63397 56.3766 8.93016H56.4771V9.94742H57.6955V0.993164H56.4239V4.52992H56.3293C55.9803 3.8202 55.2351 3.40029 54.3539 3.40029C52.7275 3.40029 51.6806 4.68961 51.6806 6.72413C51.6806 8.76456 52.7156 10.0539 54.3539 10.0539ZM54.7147 4.54175C55.7793 4.54175 56.4476 5.38749 56.4476 6.73004C56.4476 8.0785 55.7852 8.91242 54.7147 8.91242C53.6383 8.91242 52.9936 8.09033 52.9936 6.72413C52.9936 5.36975 53.6442 4.54175 54.7147 4.54175Z" fill="white"/>
<path d="M65.9412 10.0716C67.822 10.0716 68.9753 8.81188 68.9753 6.72413C68.9753 4.64821 67.8161 3.38254 65.9412 3.38254C64.0605 3.38254 62.9013 4.64821 62.9013 6.72413C62.9013 8.81188 64.0546 10.0716 65.9412 10.0716ZM65.9412 8.94199C64.8352 8.94199 64.2142 8.13173 64.2142 6.72413C64.2142 5.32835 64.8352 4.51218 65.9412 4.51218C67.0413 4.51218 67.6682 5.32835 67.6682 6.72413C67.6682 8.12582 67.0413 8.94199 65.9412 8.94199Z" fill="white"/>
<path d="M70.6585 9.94742H71.93V6.18001C71.93 5.17458 72.5274 4.54766 73.4678 4.54766C74.4081 4.54766 74.8576 5.06221 74.8576 6.09721V9.94742H76.1292V5.77784C76.1292 4.24603 75.3367 3.38254 73.8995 3.38254C72.9296 3.38254 72.2908 3.81429 71.9774 4.52992H71.8827V3.50674H70.6585V9.94742Z" fill="white"/>
<path d="M81.9855 1.90397V3.53632H80.9624V4.60681H81.9855V8.2441C81.9855 9.48611 82.5474 9.98291 83.9609 9.98291C84.2093 9.98291 84.4459 9.95334 84.6529 9.91785V8.85919C84.4755 8.87693 84.3631 8.88876 84.1679 8.88876C83.5351 8.88876 83.2571 8.59305 83.2571 7.91882V4.60681H84.6529V3.53632H83.2571V1.90397H81.9855Z" fill="white"/>
<path d="M86.3598 9.94742H87.6313V6.18593C87.6313 5.21006 88.2109 4.55358 89.2519 4.55358C90.1508 4.55358 90.6299 5.07404 90.6299 6.10312V9.94742H91.9015V5.78967C91.9015 4.25786 91.0557 3.38846 89.6836 3.38846C88.7137 3.38846 88.0335 3.8202 87.7201 4.54175H87.6195V0.993164H86.3598V9.94742Z" fill="white"/>
<path d="M96.4886 4.46486C97.429 4.46486 98.0441 5.12135 98.0736 6.1327H94.8208C94.8917 5.12726 95.5482 4.46486 96.4886 4.46486ZM98.0677 8.20862C97.8312 8.71133 97.3048 8.98931 96.5359 8.98931C95.5187 8.98931 94.8622 8.27368 94.8208 7.14404V7.07307H99.3689V6.6295C99.3689 4.60681 98.2866 3.38254 96.4945 3.38254C94.6788 3.38254 93.5255 4.68961 93.5255 6.74778C93.5255 8.80596 94.6552 10.0716 96.5004 10.0716C97.9731 10.0716 99.0022 9.36191 99.292 8.20862H98.0677Z" fill="white"/>
</svg>
