<svg width="108" height="23" viewBox="0 0 108 23" fill="none" xmlns="http://www.w3.org/2000/svg">
<path d="M67.1998 2.36126V5.62596H65.1534V7.76694H67.1998V15.0415C67.1998 17.5255 68.3235 18.5191 71.1505 18.5191C71.6473 18.5191 72.1205 18.46 72.5345 18.389V16.2717C72.1796 16.3072 71.9549 16.3309 71.5645 16.3309C70.2989 16.3309 69.7429 15.7394 69.7429 14.391V7.76694H72.5345V5.62596H69.7429V2.36126H67.1998Z" fill="white"/>
<path d="M79.7362 18.6966C83.4977 18.6966 85.8043 16.1771 85.8043 12.0016C85.8043 7.84974 83.4859 5.31842 79.7362 5.31842C75.9747 5.31842 73.6563 7.84974 73.6563 12.0016C73.6563 16.1771 75.9629 18.6966 79.7362 18.6966ZM79.7362 16.4373C77.5243 16.4373 76.2823 14.8168 76.2823 12.0016C76.2823 9.21003 77.5243 7.57768 79.7362 7.57768C81.9363 7.57768 83.1902 9.21003 83.1902 12.0016C83.1902 14.805 81.9363 16.4373 79.7362 16.4373Z" fill="white"/>
<path d="M87.7778 18.4482H90.3209V10.8424C90.3209 9.0326 91.6812 7.81425 93.6093 7.81425C94.0588 7.81425 94.8158 7.89705 95.0287 7.96802V5.46036C94.7567 5.38939 94.2717 5.3539 93.8932 5.3539C92.2135 5.3539 90.7823 6.27653 90.4156 7.54219H90.2263V5.56682H87.7778V18.4482Z" fill="white"/>
<path d="M101.343 7.48305C103.224 7.48305 104.454 8.79603 104.513 10.8187H98.0076C98.1496 8.80786 99.4626 7.48305 101.343 7.48305ZM104.502 14.9706C104.028 15.976 102.976 16.5319 101.438 16.5319C99.4034 16.5319 98.0904 15.1007 98.0076 12.8414V12.6995H107.104V11.8123C107.104 7.76694 104.939 5.31842 101.355 5.31842C97.7238 5.31842 95.4172 7.93254 95.4172 12.0489C95.4172 16.1653 97.6764 18.6966 101.367 18.6966C104.312 18.6966 106.37 17.2771 106.95 14.9706H104.502Z" fill="white"/>
<path d="M50.5222 13.6913C50.7183 16.8544 53.3542 18.8773 57.2774 18.8773C61.4704 18.8773 64.094 16.7563 64.094 13.3725C64.094 10.7121 62.5983 9.24091 58.9693 8.39497L57.02 7.91683C54.7151 7.37739 53.7833 6.65405 53.7833 5.39127C53.7833 3.79746 55.23 2.75536 57.4 2.75536C59.4597 2.75536 60.8819 3.77294 61.1393 5.40352H63.812C63.6527 2.42434 61.029 0.327881 57.4368 0.327881C53.5749 0.327881 51.0003 2.42434 51.0003 5.57517C51.0003 8.17429 52.4593 9.71905 55.6591 10.4669L57.9395 11.0186C60.2811 11.5703 61.311 12.3795 61.311 13.7281C61.311 15.2974 59.6927 16.4375 57.4859 16.4375C55.1197 16.4375 53.4768 15.3709 53.2439 13.6913H50.5222Z" fill="white"/>
<path d="M24.1777 5.3539C22.4271 5.3539 20.913 6.22922 20.1323 7.69597H19.9431V5.56682H17.4946V22.7301H20.0377V16.4965H20.2388C20.913 17.8567 22.3679 18.6611 24.2014 18.6611C27.4543 18.6611 29.5243 16.0943 29.5243 12.0016C29.5243 7.90888 27.4543 5.3539 24.1777 5.3539ZM23.4562 16.3782C21.327 16.3782 19.9904 14.6985 19.9904 12.0134C19.9904 9.31649 21.327 7.63682 23.468 7.63682C25.6208 7.63682 26.9101 9.281 26.9101 12.0016C26.9101 14.734 25.6208 16.3782 23.4562 16.3782Z" fill="white"/>
<path d="M38.4232 5.3539C36.6725 5.3539 35.1585 6.22922 34.3778 7.69597H34.1885V5.56682H31.74V22.7301H34.2831V16.4965H34.4842C35.1585 17.8567 36.6134 18.6611 38.4468 18.6611C41.6997 18.6611 43.7697 16.0943 43.7697 12.0016C43.7697 7.90888 41.6997 5.3539 38.4232 5.3539ZM37.7016 16.3782C35.5725 16.3782 34.2358 14.6985 34.2358 12.0134C34.2358 9.31649 35.5725 7.63682 37.7134 7.63682C39.8663 7.63682 41.1556 9.281 41.1556 12.0016C41.1556 14.734 39.8663 16.3782 37.7016 16.3782Z" fill="white"/>
<path d="M12.9317 18.4482H15.8496L9.46212 0.756981H6.50746L0.119995 18.4482H2.9398L4.57038 13.7526H11.3134L12.9317 18.4482ZM7.8438 3.9691H8.05222L10.6146 11.4477H5.2692L7.8438 3.9691Z" fill="white"/>
</svg>
