<svg width="122" height="25" viewBox="0 0 122 25" fill="none" xmlns="http://www.w3.org/2000/svg">
<path d="M39.0938 6.99544C35.7422 6.99544 33.0105 9.54476 33.0105 13.056C33.0105 16.5458 35.7422 19.1165 39.0938 19.1165C42.4468 19.1165 45.1786 16.5458 45.1786 13.056C45.1771 9.54476 42.4454 6.99544 39.0938 6.99544ZM39.0938 16.731C37.257 16.731 35.6738 15.2163 35.6738 13.0574C35.6738 10.8757 37.2584 9.38373 39.0938 9.38373C40.9306 9.38373 42.5138 10.8757 42.5138 13.0574C42.5138 15.2148 40.9306 16.731 39.0938 16.731ZM25.8214 6.99544C22.4698 6.99544 19.738 9.54476 19.738 13.056C19.738 16.5458 22.4698 19.1165 25.8214 19.1165C29.1744 19.1165 31.9061 16.5458 31.9061 13.056C31.9061 9.54476 29.1744 6.99544 25.8214 6.99544ZM25.8214 16.731C23.9845 16.731 22.4014 15.2163 22.4014 13.0574C22.4014 10.8757 23.986 9.38373 25.8214 9.38373C27.6582 9.38373 29.2414 10.8757 29.2414 13.0574C29.2428 15.2148 27.6582 16.731 25.8214 16.731ZM10.0352 8.85649V11.4272H16.1884C16.0045 12.8736 15.5229 13.9295 14.7876 14.6634C13.8927 15.5583 12.4919 16.5458 10.0352 16.5458C6.24756 16.5458 3.28641 13.492 3.28641 9.70436C3.28641 5.91671 6.24756 2.86294 10.0352 2.86294C12.0787 2.86294 13.5706 3.66664 14.6722 4.69976L16.4862 2.88574C14.9472 1.41656 12.9052 0.292238 10.0352 0.292238C4.84679 0.292238 0.484863 4.51594 0.484863 9.70436C0.484863 14.8928 4.84679 19.1165 10.0352 19.1165C12.8353 19.1165 14.9486 18.1974 16.6002 16.476C18.2988 14.7774 18.8275 12.3891 18.8275 10.461C18.8275 9.86538 18.7819 9.31391 18.6892 8.85506H10.0352V8.85649ZM74.5991 10.8529C74.0947 9.49916 72.5557 6.99544 69.4107 6.99544C66.2885 6.99544 63.6936 9.45214 63.6936 13.056C63.6936 16.4532 66.2657 19.1165 69.7085 19.1165C72.4858 19.1165 74.0932 17.4179 74.7601 16.4304L72.6939 15.0524C72.0056 16.0627 71.0637 16.7282 69.7085 16.7282C68.3548 16.7282 67.39 16.1083 66.7702 14.8914L74.8741 11.5398L74.5991 10.8529ZM66.3341 12.8736C66.2657 10.5309 68.1481 9.33814 69.5033 9.33814C70.5592 9.33814 71.4541 9.86681 71.7534 10.6235L66.3341 12.8736ZM59.7463 18.7503H62.4082V0.936337H59.7463V18.7503ZM55.383 8.35061H55.2918C54.6947 7.63811 53.5462 6.99544 52.1012 6.99544C49.0702 6.99544 46.2929 9.65876 46.2929 13.0802C46.2929 16.4774 49.0702 19.1179 52.1012 19.1179C53.5476 19.1179 54.6947 18.4752 55.2918 17.7414H55.383V18.6135C55.383 20.9319 54.1432 22.1717 52.1468 22.1717C50.5166 22.1717 49.5063 21.0018 49.093 20.0142L46.7746 20.979C47.44 22.5849 49.207 24.56 52.1468 24.56C55.269 24.56 57.9095 22.7232 57.9095 18.2458V7.36451H55.3844V8.35061H55.383ZM52.3306 16.731C50.4938 16.731 48.9562 15.192 48.9562 13.0802C48.9562 10.9441 50.4938 9.38373 52.3306 9.38373C54.1432 9.38373 55.5668 10.9441 55.5668 13.0802C55.5668 15.192 54.1432 16.731 52.3306 16.731ZM87.0736 0.936337H80.7024V18.7503H83.36V12.0015H87.0721C90.019 12.0015 92.9175 9.86824 92.9175 6.46961C92.9175 3.07099 90.0205 0.936337 87.0736 0.936337ZM87.142 9.52196H83.36V3.41584H87.142C89.1298 3.41584 90.2584 5.06171 90.2584 6.46961C90.2584 7.84901 89.1298 9.52196 87.142 9.52196ZM103.575 6.96409C101.65 6.96409 99.6563 7.81196 98.8312 9.69154L101.191 10.6762C101.695 9.69154 102.636 9.36949 103.621 9.36949C104.996 9.36949 106.394 10.1946 106.417 11.6609V11.8447C105.935 11.5697 104.903 11.1579 103.643 11.1579C101.1 11.1579 98.5092 12.5558 98.5092 15.1678C98.5092 17.5518 100.595 19.0866 102.932 19.0866C104.719 19.0866 105.705 18.2843 106.324 17.3438H106.415V18.7189H108.983V11.8889C108.984 8.72824 106.622 6.96409 103.575 6.96409ZM103.253 16.7268C102.384 16.7268 101.168 16.2907 101.168 15.2134C101.168 13.8383 102.682 13.311 103.988 13.311C105.155 13.311 105.707 13.5633 106.417 13.9067C106.21 15.5583 104.789 16.7268 103.253 16.7268ZM118.334 7.35311L115.286 15.0766H115.195L112.031 7.35311H109.167L113.911 18.1475L111.206 24.1524H113.979L121.291 7.35311H118.334ZM94.3852 18.7503H97.0429V0.936337H94.3852V18.7503Z" fill="white"/>
</svg>
